<svg xmlns="http://www.w3.org/2000/svg" xmlns:xlink="http://www.w3.org/1999/xlink" width="700" height="700" preserveAspectRatio="xMidYMid meet" version="1.0" viewBox="0 0 525 525" zoomAndPan="magnify"><defs><clipPath id="id1"><path d="M 0.5 0 L 524.5 0 L 524.5 524 L 0.5 524 Z M 0.5 0" clip-rule="nonzero"/></clipPath><clipPath id="id2"><path d="M 225 8.085938 L 314 8.085938 L 314 99 L 225 99 Z M 225 8.085938" clip-rule="nonzero"/></clipPath><clipPath id="id3"><path d="M 116.820312 102.035156 L 408.535156 102.035156 L 408.535156 362.195312 L 116.820312 362.195312 Z M 116.820312 102.035156" clip-rule="nonzero"/></clipPath><clipPath id="id4"><path d="M 168.230469 296.351562 L 259.402344 296.351562 L 259.402344 381.609375 L 168.230469 381.609375 Z M 168.230469 296.351562" clip-rule="nonzero"/></clipPath><clipPath id="id5"><path d="M 262.617188 296.351562 L 353.789062 296.351562 L 353.789062 381.609375 L 262.617188 381.609375 Z M 262.617188 296.351562" clip-rule="nonzero"/></clipPath></defs><g clip-path="url(#id1)"><path fill="#fff" fill-opacity="1" fill-rule="nonzero" d="M 0.5 0 L 524.5 0 L 524.5 531.488281 L 0.5 531.488281 Z M 0.5 0"/><path fill="#fff" fill-opacity="1" fill-rule="nonzero" d="M 0.5 0 L 524.5 0 L 524.5 524 L 0.5 524 Z M 0.5 0"/><path fill="#fff" fill-opacity="1" fill-rule="nonzero" d="M 0.5 0 L 524.5 0 L 524.5 524 L 0.5 524 Z M 0.5 0"/></g><g clip-path="url(#id2)"><path fill="#c2912e" fill-opacity="1" fill-rule="nonzero" d="M 280.726562 85.601562 C 258.746094 85.601562 240.925781 67.789062 240.925781 45.816406 C 240.925781 28.265625 252.296875 13.371094 268.074219 8.085938 C 244.300781 9.453125 225.445312 29.148438 225.445312 53.253906 C 225.445312 78.242188 245.710938 98.5 270.710938 98.5 C 290.257812 98.5 306.914062 86.109375 313.246094 68.757812 C 306.039062 78.949219 294.160156 85.601562 280.726562 85.601562"/></g><path fill="#c2912e" fill-opacity="1" fill-rule="nonzero" d="M 278.558594 30.121094 L 283.3125 44.746094 L 298.695312 44.746094 L 286.25 53.78125 L 291.003906 68.40625 L 278.558594 59.367188 L 266.113281 68.40625 L 270.867188 53.78125 L 258.421875 44.746094 L 273.804688 44.746094 L 278.558594 30.121094"/><g clip-path="url(#id3)"><path fill="#c2912e" fill-opacity="1" fill-rule="nonzero" d="M 117.949219 349.894531 L 117.949219 351.757812 C 117.949219 357.46875 122.582031 362.097656 128.292969 362.097656 L 165.84375 362.097656 L 167.902344 355.71875 C 168.207031 354.792969 168.511719 353.867188 168.8125 352.941406 C 169.40625 351.132812 170.003906 349.320312 170.609375 347.515625 C 171.332031 345.347656 172.289062 342.480469 173.289062 339.550781 L 128.292969 339.550781 C 122.582031 339.550781 117.949219 344.179688 117.949219 349.894531 Z M 397.058594 339.550781 L 348.742188 339.550781 C 349.742188 342.480469 350.699219 345.347656 351.429688 347.535156 C 352.03125 349.328125 352.628906 351.144531 353.226562 352.964844 C 353.527344 353.882812 353.828125 354.800781 354.128906 355.71875 L 356.1875 362.097656 L 397.058594 362.097656 C 402.773438 362.097656 407.40625 357.46875 407.40625 351.757812 L 407.40625 349.894531 C 407.40625 344.179688 402.773438 339.550781 397.058594 339.550781 Z M 408.535156 285.871094 C 408.535156 209.738281 274.414062 168.617188 262.675781 102.066406 C 250.941406 168.617188 116.820312 209.738281 116.820312 285.871094 C 116.820312 286.03125 116.820312 286.191406 116.824219 286.351562 C 116.914062 311.363281 137.351562 331.539062 162.375 331.539062 L 176.03125 331.539062 L 176.15625 331.175781 C 176.769531 329.386719 177.402344 327.585938 178.035156 325.785156 C 178.355469 324.867188 178.679688 323.949219 179 323.03125 L 181.90625 314.847656 C 182.25 313.898438 182.59375 312.945312 182.9375 311.996094 C 183.570312 310.238281 184.203125 308.480469 184.847656 306.730469 C 185.039062 306.210938 185.222656 305.710938 185.402344 305.21875 L 165.582031 285.402344 L 193.535156 257.460938 L 193.535156 217.949219 L 233.0625 217.949219 L 261.015625 190.007812 L 288.96875 217.949219 L 328.496094 217.949219 L 328.496094 257.460938 L 356.449219 285.402344 L 336.628906 305.21875 C 336.8125 305.714844 336.996094 306.21875 337.1875 306.742188 C 337.832031 308.488281 338.46875 310.253906 339.101562 312.015625 C 339.445312 312.960938 339.785156 313.90625 340.125 314.847656 L 343.03125 323.03125 C 343.355469 323.957031 343.679688 324.882812 344.003906 325.804688 C 344.632812 327.597656 345.261719 329.390625 345.878906 331.191406 L 346 331.539062 L 362.980469 331.539062 C 388.003906 331.539062 408.441406 311.363281 408.53125 286.351562 C 408.53125 286.191406 408.535156 286.03125 408.535156 285.871094"/></g><path fill="#c2912e" fill-opacity="1" fill-rule="nonzero" d="M 269.023438 102.066406 C 269.023438 105.570312 266.183594 108.410156 262.675781 108.410156 C 259.171875 108.410156 256.332031 105.570312 256.332031 102.066406 C 256.332031 98.5625 259.171875 95.722656 262.675781 95.722656 C 266.183594 95.722656 269.023438 98.5625 269.023438 102.066406"/><path fill="#035b73" fill-opacity="1" fill-rule="nonzero" d="M 342.148438 280.167969 L 318.933594 286.261719 C 319.628906 286.191406 320.324219 286.121094 321.003906 286.050781 L 333.789062 284.785156 L 337.660156 295.125 L 347.382812 285.402344 Z M 328.515625 266.542969 L 282.371094 290.628906 L 341.175781 279.199219 Z M 322.085938 224.355469 L 320.097656 224.355469 L 277.011719 282.105469 L 322.085938 248.503906 Z M 297.207031 224.355469 L 273.050781 278.945312 L 319.578125 224.355469 Z M 235.71875 224.355469 L 226.175781 224.355469 L 253.542969 276.75 L 242.113281 217.96875 Z M 286.3125 224.355469 L 279.917969 217.96875 L 268.488281 276.75 L 295.855469 224.355469 Z M 322.085938 260.117188 L 322.085938 250.371094 L 280.171875 286.0625 L 327.230469 265.261719 Z M 261.070312 199.121094 L 263.550781 275.621094 L 278.949219 216.996094 Z M 199.945312 260.117188 L 194.800781 265.261719 L 241.859375 286.0625 L 199.945312 250.371094 Z M 174.648438 285.402344 L 184.371094 295.125 L 188.242188 284.785156 L 201.023438 286.050781 C 201.707031 286.121094 202.398438 286.191406 203.09375 286.261719 L 179.886719 280.167969 Z M 199.945312 224.355469 L 199.945312 248.503906 L 245.015625 282.105469 L 201.933594 224.355469 Z M 180.855469 279.199219 L 239.660156 290.628906 L 193.515625 266.542969 Z M 258.484375 275.621094 L 260.964844 199.121094 L 243.082031 216.996094 Z M 202.453125 224.355469 L 248.980469 278.945312 L 224.824219 224.355469 Z M 202.453125 224.355469"/><g clip-path="url(#id4)"><path fill="#035b73" fill-opacity="1" fill-rule="nonzero" d="M 226.792969 310.054688 L 226.816406 310.054688 C 226.824219 310.054688 226.824219 310.054688 226.792969 310.054688 Z M 259.246094 336.769531 C 259.261719 336.523438 259.289062 336.269531 259.296875 336.015625 L 259.3125 335.257812 C 259.351562 333.230469 259.191406 331.183594 258.859375 329.152344 C 258.542969 327.117188 257.992188 325.109375 257.28125 323.148438 C 257.101562 322.660156 256.902344 322.179688 256.714844 321.691406 C 256.519531 321.207031 256.292969 320.738281 256.082031 320.253906 C 255.632812 319.304688 255.136719 318.378906 254.605469 317.472656 C 253.535156 315.65625 252.304688 313.921875 250.917969 312.300781 C 249.523438 310.695312 247.984375 309.199219 246.316406 307.839844 C 244.648438 306.484375 242.851562 305.261719 240.945312 304.222656 C 240.460938 303.96875 239.984375 303.714844 239.496094 303.46875 L 238.015625 302.777344 L 236.496094 302.164062 C 235.988281 301.972656 235.46875 301.796875 234.957031 301.613281 C 233.914062 301.277344 232.863281 300.964844 231.792969 300.71875 C 231.277344 300.585938 230.6875 300.476562 230.113281 300.371094 L 229.261719 300.21875 L 228.550781 300.109375 L 227.839844 300.003906 L 227.007812 299.902344 L 225.585938 299.730469 L 222.738281 299.386719 L 217.046875 298.722656 L 211.351562 298.085938 L 205.652344 297.46875 C 203.75 297.265625 201.851562 297.074219 199.953125 296.886719 L 195.503906 296.441406 L 193.84375 300.871094 C 192.839844 303.554688 191.851562 306.25 190.863281 308.945312 C 189.871094 311.632812 188.910156 314.335938 187.933594 317.035156 L 185.050781 325.140625 C 184.105469 327.851562 183.148438 330.554688 182.21875 333.261719 L 180.8125 337.328125 L 179.429688 341.40625 C 178.503906 344.117188 177.59375 346.835938 176.6875 349.558594 C 175.769531 352.277344 174.890625 355.007812 173.992188 357.726562 L 171.34375 365.917969 L 168.570312 374.519531 C 168.570312 374.519531 240.871094 368.835938 257.488281 381.609375 C 257.488281 381.609375 255.484375 375.96875 251.367188 371.289062 L 251.105469 370.882812 L 250.917969 370.59375 L 250.6875 370.292969 L 250.222656 369.683594 L 249.988281 369.382812 L 249.746094 369.109375 L 249.257812 368.542969 C 249.097656 368.351562 248.925781 368.179688 248.746094 368.003906 L 248.222656 367.46875 C 246.800781 366.066406 245.15625 364.867188 243.382812 363.875 L 242.019531 363.171875 C 241.550781 362.96875 241.085938 362.757812 240.605469 362.558594 C 240.125 362.390625 239.644531 362.207031 239.148438 362.046875 C 238.65625 361.90625 238.160156 361.746094 237.65625 361.625 C 237.152344 361.519531 236.648438 361.386719 236.132812 361.296875 C 235.617188 361.222656 235.105469 361.117188 234.582031 361.070312 L 233.800781 360.996094 C 233.539062 360.96875 233.277344 360.945312 233.015625 360.941406 L 232.222656 360.917969 L 231.832031 360.910156 L 231.480469 360.910156 L 225.976562 360.894531 C 224.136719 360.878906 222.304688 360.902344 220.46875 360.910156 L 214.964844 360.945312 L 209.464844 361.015625 C 205.796875 361.078125 202.128906 361.152344 198.464844 361.242188 L 192.96875 361.394531 L 187.472656 361.566406 L 185.457031 361.640625 C 186.433594 358.96875 187.425781 356.300781 188.386719 353.621094 C 189.363281 350.921875 190.332031 348.226562 191.289062 345.523438 L 192.726562 341.46875 L 194.148438 337.40625 C 195.105469 334.703125 196.023438 331.984375 196.964844 329.277344 L 199.730469 321.132812 C 200.640625 318.410156 201.558594 315.691406 202.449219 312.96875 C 202.878906 311.660156 203.316406 310.34375 203.742188 309.03125 C 204.074219 309.054688 204.402344 309.074219 204.738281 309.089844 L 210.460938 309.375 L 215.367188 309.605469 C 226.046875 310.757812 241.605469 314.160156 251.042969 324.003906 C 255.359375 328.503906 258.390625 334.351562 259.089844 341.945312 C 259.144531 341.996094 259.195312 342.046875 259.246094 342.09375 L 259.246094 336.769531"/></g><g clip-path="url(#id5)"><path fill="#035b73" fill-opacity="1" fill-rule="nonzero" d="M 295.214844 310.054688 L 295.242188 310.054688 C 295.207031 310.058594 295.203125 310.054688 295.214844 310.054688 Z M 262.785156 342.09375 C 262.835938 342.046875 262.886719 341.996094 262.941406 341.949219 C 263.640625 334.351562 266.675781 328.507812 270.988281 324.003906 C 280.425781 314.160156 295.984375 310.757812 306.664062 309.605469 L 311.570312 309.375 L 317.296875 309.089844 C 317.628906 309.074219 317.957031 309.054688 318.289062 309.035156 C 318.714844 310.347656 319.148438 311.660156 319.578125 312.96875 C 320.472656 315.695312 321.390625 318.414062 322.296875 321.136719 L 325.066406 329.277344 C 326.003906 331.988281 326.925781 334.707031 327.882812 337.40625 L 329.304688 341.46875 L 330.742188 345.523438 C 331.699219 348.226562 332.667969 350.925781 333.644531 353.621094 C 334.605469 356.300781 335.597656 358.96875 336.574219 361.644531 L 334.554688 361.566406 L 329.0625 361.394531 L 323.566406 361.242188 C 319.902344 361.15625 316.234375 361.078125 312.566406 361.019531 L 307.0625 360.945312 L 301.5625 360.910156 C 299.726562 360.902344 297.894531 360.882812 296.054688 360.894531 L 290.550781 360.910156 L 290.199219 360.910156 L 289.804688 360.917969 L 289.015625 360.941406 C 288.753906 360.945312 288.492188 360.96875 288.230469 360.996094 L 287.449219 361.070312 C 286.925781 361.117188 286.414062 361.222656 285.898438 361.300781 C 285.382812 361.386719 284.878906 361.519531 284.375 361.628906 C 283.871094 361.75 283.375 361.910156 282.882812 362.050781 C 282.386719 362.207031 281.90625 362.390625 281.421875 362.558594 C 280.945312 362.757812 280.480469 362.96875 280.011719 363.171875 L 278.648438 363.875 C 276.875 364.867188 275.230469 366.066406 273.808594 367.46875 L 273.28125 368.003906 C 273.105469 368.179688 272.933594 368.351562 272.773438 368.546875 L 272.285156 369.109375 L 272.042969 369.386719 L 271.808594 369.6875 L 271.34375 370.292969 L 271.113281 370.59375 L 270.925781 370.882812 L 270.664062 371.289062 C 266.546875 375.96875 264.542969 381.609375 264.542969 381.609375 C 281.160156 368.839844 353.460938 374.519531 353.460938 374.519531 L 350.6875 365.921875 L 348.039062 357.730469 C 347.140625 355.007812 346.261719 352.277344 345.347656 349.558594 C 344.4375 346.839844 343.527344 344.121094 342.601562 341.40625 L 341.214844 337.332031 L 339.8125 333.261719 C 338.882812 330.554688 337.921875 327.851562 336.980469 325.140625 L 334.101562 317.035156 C 333.121094 314.339844 332.160156 311.636719 331.167969 308.945312 C 330.179688 306.253906 329.191406 303.558594 328.1875 300.871094 L 326.527344 296.445312 L 322.078125 296.886719 C 320.179688 297.074219 318.277344 297.265625 316.378906 297.472656 L 310.679688 298.085938 L 304.984375 298.722656 L 299.292969 299.386719 L 296.445312 299.734375 L 295.023438 299.90625 L 294.191406 300.003906 L 293.480469 300.109375 L 292.769531 300.21875 L 291.917969 300.371094 C 291.34375 300.480469 290.753906 300.585938 290.238281 300.71875 C 289.167969 300.964844 288.113281 301.277344 287.074219 301.613281 C 286.558594 301.800781 286.042969 301.972656 285.53125 302.164062 L 284.015625 302.78125 L 282.53125 303.46875 C 282.046875 303.714844 281.566406 303.972656 281.085938 304.222656 C 279.179688 305.265625 277.382812 306.484375 275.714844 307.84375 C 274.046875 309.199219 272.507812 310.695312 271.113281 312.300781 C 269.726562 313.925781 268.496094 315.660156 267.425781 317.472656 C 266.890625 318.382812 266.398438 319.308594 265.949219 320.253906 C 265.738281 320.738281 265.511719 321.207031 265.320312 321.695312 C 265.128906 322.183594 264.929688 322.660156 264.753906 323.152344 C 264.042969 325.109375 263.492188 327.117188 263.167969 329.152344 C 262.839844 331.183594 262.679688 333.230469 262.71875 335.257812 L 262.738281 336.019531 C 262.746094 336.269531 262.769531 336.523438 262.785156 336.773438 L 262.785156 342.09375"/></g><g fill="#035b73" fill-opacity="1"><g><g><path d="M 19.867188 -77.84375 L 19.867188 -64.671875 L 33.578125 -64.671875 L 33.578125 -77.84375 Z M 40.59375 -77.84375 L 40.59375 -64.671875 L 54.308594 -64.671875 L 54.308594 -77.84375 Z M 59.921875 -14.144531 C 55.820312 -14.144531 53.226562 -15.980469 53.226562 -20.082031 L 53.226562 -49.558594 L 39.191406 -57.871094 L 7.339844 -37.679688 L 7.339844 -23.753906 C 7.339844 -9.5 17.492188 -2.484375 26.558594 -2.484375 L 27.855469 -2.484375 C 33.46875 -2.484375 38.542969 -4.75 42 -8.851562 C 44.914062 -3.238281 50.527344 0 57.65625 0 L 62.296875 0 C 63.808594 0 65.210938 -1.296875 65.210938 -2.914062 L 65.210938 -11.230469 C 65.210938 -12.957031 63.808594 -14.144531 62.296875 -14.144531 Z M 28.609375 -16.519531 C 24.941406 -16.519531 21.378906 -19.542969 21.378906 -23.535156 L 21.378906 -30.769531 L 39.191406 -41.351562 L 39.191406 -23.535156 C 39.191406 -19.542969 35.738281 -16.519531 31.957031 -16.519531 Z M 28.609375 -16.519531" transform="translate(193.935888, 491.220617)"/></g></g></g><g fill="#035b73" fill-opacity="1"><g><g><path d="M 12.09375 0 C 28.289062 0 34.007812 -8.207031 34.007812 -21.808594 L 34.007812 -50.203125 L 19.972656 -50.203125 L 19.972656 -21.703125 C 19.972656 -16.519531 17.382812 -14.144531 12.308594 -14.144531 L 0 -14.144531 C -1.511719 -14.144531 -2.808594 -12.847656 -2.808594 -11.230469 L -2.808594 -2.914062 C -2.808594 -1.1875 -1.511719 0 0 0 Z M 13.0625 22.457031 L 13.0625 9.175781 L -0.648438 9.175781 L -0.648438 22.457031 Z M 33.902344 22.457031 L 33.902344 9.175781 L 20.191406 9.175781 L 20.191406 22.457031 Z M 33.902344 22.457031" transform="translate(256.227876, 491.220617)"/></g></g></g><g fill="#035b73" fill-opacity="1"><g><g><path d="M 22.132812 -71.257812 C 28.394531 -71.257812 31.632812 -75.253906 31.632812 -82.8125 L 23.644531 -82.8125 C 23.644531 -80.003906 22.996094 -78.921875 21.484375 -78.921875 C 20.296875 -78.921875 19.109375 -79.464844 17.058594 -80.757812 C 15.007812 -82.054688 12.523438 -83.457031 9.71875 -83.457031 C 3.996094 -83.457031 0.214844 -78.601562 0.214844 -71.257812 L 8.097656 -71.257812 C 8.097656 -74.390625 8.746094 -75.683594 10.257812 -75.683594 C 10.90625 -75.683594 12.523438 -75.035156 14.683594 -73.847656 C 18.136719 -71.90625 20.082031 -71.257812 22.132812 -71.257812 Z M 22.996094 0 L 22.996094 -64.78125 L 8.960938 -64.78125 L 8.960938 0 Z M 22.996094 0" transform="translate(299.087354, 491.220617)"/></g></g></g></svg>